<?xml version="1.0" standalone="no"?>
<!DOCTYPE svg PUBLIC "-//W3C//DTD SVG 20010904//EN"
 "http://www.w3.org/TR/2001/REC-SVG-20010904/DTD/svg10.dtd">
<svg version="1.0" xmlns="http://www.w3.org/2000/svg"
 width="851.000000pt" height="851.000000pt" viewBox="0 0 851.000000 851.000000"
 preserveAspectRatio="xMidYMid meet">
<metadata>
Created by potrace 1.11, written by Peter Selinger 2001-2013
</metadata>
<g transform="translate(0.000000,851.000000) scale(0.100000,-0.100000)"
fill="#000000" stroke="none">
<path d="M6643 8413 c-44 -49 -118 -131 -163 -183 -46 -52 -86 -97 -89 -100
-3 -3 -47 -52 -96 -110 -50 -58 -95 -109 -101 -115 -6 -5 -76 -84 -155 -175
-79 -91 -158 -181 -175 -200 -17 -19 -107 -120 -199 -225 -235 -267 -224 -254
-419 -468 -119 -130 -129 -123 -81 63 16 62 142 513 160 575 22 73 30 122 18
110 -5 -5 -52 -66 -103 -135 -51 -69 -109 -145 -128 -170 -19 -25 -93 -124
-165 -220 -72 -96 -135 -179 -140 -185 -4 -5 -56 -73 -115 -151 -203 -268
-263 -336 -280 -319 -4 4 -6 120 -4 258 l3 252 -23 -21 c-13 -11 -68 -56 -123
-100 -55 -43 -142 -114 -195 -157 -52 -43 -102 -84 -110 -90 -8 -7 -125 -102
-260 -212 -333 -271 -624 -508 -629 -512 -10 -8 10 -12 94 -18 50 -4 97 -9
106 -10 9 -2 40 -6 70 -10 73 -9 261 -51 356 -79 386 -117 797 -338 1134 -611
205 -166 571 -540 659 -675 8 -12 20 -28 26 -34 46 -49 209 -314 279 -454 135
-271 196 -491 220 -787 4 -44 10 -83 13 -87 4 -3 45 42 92 100 47 59 92 116
102 127 9 11 51 63 93 115 41 52 81 102 88 110 7 8 46 58 87 110 41 52 77 97
80 100 3 3 30 37 60 75 30 39 57 72 60 75 3 3 37 46 75 95 38 50 77 99 87 110
34 41 324 409 370 470 4 6 19 24 33 41 l25 32 -31 4 c-16 3 -92 6 -167 7 -187
3 -233 8 -252 27 -14 14 -12 18 20 46 46 39 314 263 370 308 24 19 48 40 54
45 6 6 47 40 91 75 44 36 82 67 85 70 3 3 81 69 174 145 92 77 180 150 195
163 l26 23 -49 -5 c-48 -6 -200 -38 -366 -78 -47 -11 -96 -22 -110 -25 -14 -2
-72 -15 -130 -28 -58 -13 -157 -33 -220 -45 -63 -11 -122 -22 -131 -24 -9 -2
-23 0 -30 4 -14 9 -2 33 47 86 16 17 51 56 78 85 27 30 97 106 156 169 59 63
122 131 140 150 18 19 88 94 155 165 67 72 137 146 155 165 18 19 89 95 159
169 69 73 133 141 141 151 8 9 58 63 110 119 88 96 125 141 104 129 -5 -3 -30
-15 -56 -27 -26 -12 -114 -53 -194 -91 -81 -39 -148 -70 -150 -70 -1 0 -49
-22 -106 -49 -98 -46 -328 -154 -430 -200 -108 -49 -108 -22 2 109 25 30 72
87 104 125 31 39 67 82 79 96 12 14 40 47 62 74 22 26 76 91 120 144 44 53 87
104 95 115 8 10 20 23 25 30 6 6 39 45 74 86 34 41 73 86 84 100 12 14 61 72
110 130 94 112 182 214 207 240 44 46 101 120 92 120 -14 0 -76 -27 -237 -105
-574 -277 -590 -284 -609 -265 -16 16 -3 47 214 495 45 94 99 206 120 250 21
44 70 148 110 230 98 204 112 236 107 241 -3 4 -358 -358 -414 -422 -10 -12
-82 -88 -159 -170 -78 -82 -157 -165 -175 -185 -19 -20 -92 -97 -162 -172 -70
-74 -136 -145 -146 -156 -10 -12 -79 -85 -152 -163 -177 -186 -184 -194 -329
-348 -69 -74 -136 -145 -150 -160 -63 -66 -281 -299 -310 -330 -266 -289 -438
-460 -462 -460 -35 0 -29 15 175 400 27 52 81 156 120 230 38 74 84 162 102
195 18 33 63 119 100 190 64 124 117 224 210 400 92 174 136 256 214 406 44
86 101 194 126 240 40 75 80 154 219 427 24 45 42 82 40 82 -1 0 -38 -39 -81
-87z"/>
<path d="M2837 5304 c-1 -1 -40 -5 -87 -8 -87 -7 -114 -10 -210 -26 -30 -5
-69 -12 -85 -14 -17 -3 -75 -17 -130 -31 -55 -15 -107 -28 -116 -30 -34 -7
-192 -66 -286 -105 -720 -305 -1279 -944 -1503 -1719 -12 -41 -23 -81 -25 -90
-2 -9 -8 -34 -13 -56 -6 -22 -14 -60 -17 -85 -4 -24 -8 -47 -11 -51 -28 -45
-27 -729 1 -882 59 -317 188 -663 344 -921 151 -249 413 -538 675 -744 278
-220 721 -422 1066 -486 14 -3 50 -10 80 -16 30 -6 78 -13 105 -16 28 -3 57
-8 65 -11 26 -9 431 -11 510 -2 151 16 176 20 230 29 71 13 86 16 140 29 25 7
56 14 69 17 50 10 249 77 331 111 604 247 1102 710 1385 1288 71 145 158 368
170 436 3 18 8 36 10 40 8 12 53 231 59 284 4 28 8 61 11 75 17 87 24 452 12
585 -23 241 -85 493 -177 725 -244 612 -684 1095 -1268 1390 -65 33 -122 60
-125 60 -4 0 -32 12 -64 26 -134 62 -430 144 -605 169 -21 3 -54 7 -74 10 -93
13 -456 28 -467 19z m698 -628 c105 -4 206 -9 225 -12 86 -14 181 -93 234
-194 l26 -49 0 -1079 0 -1080 -30 -59 c-58 -114 -143 -176 -255 -187 -53 -6
-421 -13 -915 -20 l-165 -2 -2 -144 c-1 -80 -4 -395 -7 -700 -5 -572 -8 -626
-26 -644 -7 -7 -94 -11 -263 -10 -260 1 -343 6 -360 23 -6 6 -11 113 -13 253
-5 338 -4 3590 0 3713 2 55 5 114 5 130 2 44 12 55 62 63 49 9 1183 7 1484 -2z"/>
<path d="M2649 4101 c-7 -39 -2 -1514 5 -1518 5 -4 164 -7 352 -8 l344 -1 0
763 0 763 -112 1 c-62 0 -220 1 -350 3 -131 2 -238 0 -239 -3z"/>
</g>
</svg>
