<?xml version="1.0" standalone="no"?>
<!DOCTYPE svg PUBLIC "-//W3C//DTD SVG 20010904//EN"
 "http://www.w3.org/TR/2001/REC-SVG-20010904/DTD/svg10.dtd">
<svg version="1.0" xmlns="http://www.w3.org/2000/svg"
 width="1195.000000pt" height="1195.000000pt" viewBox="0 0 1195.000000 1195.000000"
 preserveAspectRatio="xMidYMid meet">
<metadata>
Created by potrace 1.11, written by Peter Selinger 2001-2013
</metadata>
<g transform="translate(0.000000,1195.000000) scale(0.100000,-0.100000)"
fill="#000000" stroke="none">
<path d="M5720 11920 c-1351 -72 -2589 -568 -3610 -1443 -160 -138 -521 -505
-656 -667 -766 -922 -1222 -1983 -1362 -3166 l-8 -72 60 -82 61 -81 8 88 c32
363 70 600 147 911 145 582 397 1158 719 1642 l96 145 3 -64 c3 -59 0 -67 -36
-125 -334 -526 -559 -1077 -686 -1681 -28 -132 -61 -336 -71 -430 -3 -33 -8
-71 -11 -85 -3 -14 33 43 79 125 46 83 110 191 142 240 55 86 59 96 87 230 81
400 207 764 391 1135 l102 205 3 -258 2 -259 -29 -86 c-17 -48 -45 -145 -64
-217 -56 -210 -58 -197 15 -131 349 316 562 464 913 636 269 132 594 253 870
325 251 65 724 145 1055 179 288 30 760 55 760 41 0 -8 -173 -899 -253 -1305
l-43 -215 -209 -6 c-464 -15 -764 -82 -1077 -241 -351 -178 -637 -440 -879
-806 -220 -332 -374 -734 -435 -1137 -26 -171 -26 -516 -1 -635 87 -404 330
-723 726 -949 322 -184 710 -285 1276 -331 467 -38 1277 -17 1850 48 85 10
155 14 155 9 0 -23 -210 -1129 -215 -1135 -11 -12 -429 -68 -690 -92 -441 -41
-701 -54 -1122 -54 -227 -1 -413 -2 -413 -3 0 -1 11 -8 24 -15 22 -12 801
-1046 794 -1054 -2 -1 -73 26 -158 62 -710 296 -1359 697 -1872 1156 -69 62
-88 73 -195 113 -124 46 -213 82 -326 134 l-68 31 19 -28 c71 -99 371 -412
558 -583 666 -609 1419 -1054 2242 -1325 l177 -59 155 -207 c85 -115 157 -208
161 -208 4 0 60 -9 126 -20 329 -57 631 -81 998 -81 416 1 780 36 1160 112
1901 382 3497 1663 4277 3434 559 1269 656 2701 273 4034 -71 246 -162 503
-255 716 l-22 50 -38 -185 c-20 -102 -59 -296 -85 -431 l-48 -246 -396 -6
c-218 -4 -699 -10 -1069 -14 -671 -6 -672 -6 -677 -27 -7 -26 -126 -643 -291
-1506 -69 -360 -186 -968 -259 -1350 -225 -1171 -323 -1681 -386 -2009 -32
-173 -60 -316 -62 -317 -8 -7 -1847 -15 -1847 -7 0 5 31 168 69 363 68 352
142 739 371 1930 65 338 168 874 229 1190 61 316 159 829 219 1140 l108 565
-61 3 c-33 2 -521 -1 -1085 -7 -564 -5 -1027 -8 -1029 -6 -2 2 15 100 38 217
23 117 89 456 147 753 58 297 109 543 112 546 4 4 639 12 1412 18 773 6 1954
16 2625 21 671 5 1301 12 1400 15 99 3 199 5 223 5 l42 0 -51 83 c-847 1352
-2192 2309 -3736 2656 -515 116 -1101 167 -1593 141z"/>
</g>
</svg>
