<svg id="Ebene_1" data-name="Ebene 1" xmlns="http://www.w3.org/2000/svg" viewBox="0 0 595.28 187.09">
  <defs>
    <style>
      .cls-1 {
        fill: #000;
      }
    </style>
  </defs>
  <path class="cls-1"
    d="M13.23,124.93l5.41-28c2.27-11.74,7-14.06,18-14.06h5.46c7.38,0,15.3,4.23,21,6.41l-8.34,43.15c-6.6,2.32-16.15,6.55-23.52,6.55H25.81c-11.06,0-14.82-2.46-12.58-14.06M36.7,74.14c-15.56,0-24.22,3.14-27.68,21L3,126.29c-2.23,11.57.1,17,6.23,19.34,3.35,1.29,7.83,1.69,13.33,1.69h5.87c8.33,0,18.35-4.51,24.93-7.51L51.78,148c-2.27,11.74-7.85,19.08-18.91,19.08H5.08l-1.63,8.47h29c15.81.13,25.51-8,28.88-26.18L75.78,74.68H66l-1.34,7c-5.43-3-14-7.51-22.31-7.51Zm84.6,53.11L126.94,98c2.56-13.24,6.32-15,18.2-15h13.51c12.43,0,15.09,1.78,12.53,15l-5.65,29.22c-2.48,12.83-5.5,15-18.33,15H133.68c-12.69,0-14.86-2.19-12.38-15M145.52,74c-15.84,0-25,5.46-28.44,23.48l-5.93,30.72c-3.46,17.89,3.51,23.49,19.35,23.49h16.24c15.84,0,25-5.6,28.44-23.49l5.94-30.72C184.6,79.46,177.6,74,161.76,74Zm137.76,55.39.79-4.09c2.4-12.43,6.54-14.07,18-14.07h11.06a173.07,173.07,0,0,1,17.84,1L326.2,136.9c-6.56,2.18-16.12,6.42-23.36,6.42h-7c-12.7,0-14.84-2.32-12.6-13.93m41-55.43H294l-1.53,7.92h28.39c12.84,0,15.77,1.09,13.1,14.88l-1.74,9a82.5,82.5,0,0,0-18.61-1.91H302.28c-5.73,0-10.47.28-14.35,1.5-6.77,2.12-10.94,7.12-13.15,18.57l-1.24,6.42c-3.83,19.79,3.83,21.16,19.53,21.16h6.55c8.33,0,18.65-4.64,25.24-7.65l-1.38,7.1h10l10.82-56c3.34-17.25-3.43-21-18.31-21l-1.65,0M98.24,51.07,78.9,151.14h9.83L108.08,51.07ZM201.47,136.4l9.1-47.11c6.57-2.18,16.12-6.41,23.36-6.41h5.6c11.06,0,14.84,2.32,12.57,14.06l-6.18,31.95c-2.24,11.6-6.92,13.92-18,13.92h-5.6c-7.23,0-15.15-4.23-20.87-6.41M208,51.07,188.65,151.14h10L200,144c5.42,3,13.95,7.65,22.28,7.65h5.46c15.7,0,24.39-3.28,27.85-21.16l6.83-35.37c3.46-17.88-4-21-19.69-21h-5.46c-8.33,0-18.62,4.5-25.21,7.51L218,51.07Zm162.71-.15L351.35,151h9.83L380.53,50.92Z" />
  <path class="cls-1"
    d="M584.63,54.87l-2.88,14.77L548.59,70,533.1,150.61l-28.59.27L520,70.23l-33.79.32L490.8,47,580,46.16a92.3,92.3,0,0,0-171.5,47.38c0,.22,0,.43,0,.64A56.43,56.43,0,0,1,428.8,61.61c6.24-4.88,13.9-8.51,23.42-11.11A129.73,129.73,0,0,1,480,47.12l-4.59,23.53a67.67,67.67,0,0,0-11.44.84C453.1,73.64,444.2,81,438.9,92.08a42.24,42.24,0,0,0-4.25,18.57c.25,12.12,9.74,20.75,25.4,23,11.26,1.67,26.31,1,37.19-.41L493.85,151A162.2,162.2,0,0,1,475,153c-9.24.64-22.58.29-30.22-1.6a65.13,65.13,0,0,1-14.17-5.25,45.23,45.23,0,0,1-10.07-7.08,92.3,92.3,0,0,0,164.1-84.19Z" />
</svg>