<svg id="Ebene_1" data-name="Ebene 1" xmlns="http://www.w3.org/2000/svg" xmlns:xlink="http://www.w3.org/1999/xlink"
  viewBox="0 0 595.28 187.09">
  <defs>
    <style>
      .cls-1 {
        fill: none;
      }

      .cls-2 {
        clip-path: url(#clip-path);
      }

      .cls-3 {
        fill: url(#Neues_Verlaufsfeld_1);
      }

      .cls-4 {
        opacity: 0.58;
        fill: url(#Neues_Verlaufsfeld_1-2);
      }

      .cls-5 {
        fill: url(#Unbenannter_Verlauf_11);
      }

      .cls-6 {
        fill: #fff;
      }
    </style>
    <clipPath id="clip-path">
      <circle class="cls-1" cx="500.82" cy="93.54" r="92.29" transform="translate(232.36 526.56) rotate(-68.78)" />
    </clipPath>
    <linearGradient id="Neues_Verlaufsfeld_1" x1="420.89" y1="153.06" x2="721.04" y2="-70.42"
      gradientTransform="translate(406.77 -407.18) rotate(68.78)" gradientUnits="userSpaceOnUse">
      <stop offset="0" stop-color="#5db77a" />
      <stop offset="0.31" stop-color="#4f89c8" />
      <stop offset="0.78" stop-color="#2e4b7a" />
      <stop offset="1" stop-color="#21335b" />
    </linearGradient>
    <linearGradient id="Neues_Verlaufsfeld_1-2" x1="410.93" y1="97.18" x2="590.71" y2="97.18"
      gradientTransform="matrix(1, 0, 0, 1, 0, 0)" xlink:href="#Neues_Verlaufsfeld_1" />
    <radialGradient id="Unbenannter_Verlauf_11" cx="353.35" cy="21.24" r="440.32" gradientUnits="userSpaceOnUse">
      <stop offset="0" stop-color="#4f89c8" />
      <stop offset="0.25" stop-color="#4677b2" />
      <stop offset="0.76" stop-color="#2d4a78" />
      <stop offset="1" stop-color="#21335b" />
    </radialGradient>
  </defs>
  <g class="cls-2">
    <circle class="cls-3" cx="500.82" cy="93.54" r="92.29" transform="translate(232.36 526.56) rotate(-68.78)" />
    <path class="cls-4"
      d="M431.21,35.81l-1.13,1.4,1.5-1.84-.09.11-.09.11-.1.11-.09.11M547.14,169.54c1.58-.91,3.59-2.31,5.13-3.31-23.85,15.94-56.51,11.65-72,6.59-86.5-28.11-82.39-123.46-27.92-150-1,.29-2,.61-3,.95s-1.91.7-2.83,1.09-1.8.78-2.66,1.21-1.68.86-2.49,1.33c-11.46,8.68-18.37,19.87-22.14,27.73-33,68.7,38.9,145.93,113.14,121.54l4.31-1.74c3.65-1.59,3.65-1.59,10.52-5.41m29.32-28.31c1.85-2.82,3.92-6.83,5.5-9.8-16,31.47-85.22,38.69-131.54,2.68C400.58,95.37,422.78,26.38,473.35,20.38h-3.27l-1.07,0c-32.18,3.1-52,35.64-52,64,.15,75.62,112.35,109.92,154,64.3,1.71-2.18,3.81-5.21,5.39-7.47m13.13-33.87c1.24-8.1,1.19-11.53,1-19.81C592,119,528.1,139.68,475.86,115.43c-50.75-23.55-52.21-78.63-2.51-95.05C435.51,29,418.23,68.89,438.47,101c31.44,49.83,140.15,54.64,151.07,6.68l.05-.29m-5.24-47.9c-2.18-5.48-3.45-7.64-7.65-14.81,14.91,25.55-34.11,50.74-79.47,40.84-41-8.93-60.62-43.41-23.88-65.11-33.07,14-39,51.39,1.43,73.57C520,118.77,594.62,97.8,585.61,62.8ZM431.21,35.81l.1-.12.11-.12a.69.69,0,0,1,.11-.13l.1-.12.34-.41ZM545.3,15A98.06,98.06,0,0,1,560,25.37l0,0c19.84,18.44-13.44,42.22-48.49,41.93-38-.31-61.25-25.08-41.52-44.17a38.49,38.49,0,0,1,3.33-2.77c-16.28,19.39,11.76,34,37.26,31.49,37.2-3.67,49.21-25.24,35.39-36.16a34.29,34.29,0,0,0-4.29-2.64Z" />
  </g>
  <path class="cls-5"
    d="M13.23,124.93l5.41-28c2.27-11.74,7-14.06,18-14.06h5.46c7.38,0,15.3,4.23,21,6.41l-8.34,43.15c-6.6,2.32-16.15,6.55-23.52,6.55H25.81c-11.06,0-14.82-2.46-12.58-14.06M36.7,74.14c-15.56,0-24.22,3.14-27.68,21L3,126.29c-2.23,11.57.1,17,6.23,19.34,3.35,1.29,7.83,1.69,13.33,1.69h5.87c8.33,0,18.35-4.51,24.93-7.51L51.78,148c-2.27,11.74-7.85,19.08-18.91,19.08H5.08l-1.63,8.47h29c15.81.13,25.51-8,28.88-26.18L75.78,74.68H66l-1.34,7c-5.43-3-14-7.51-22.31-7.51Zm84.6,53.11L126.94,98c2.56-13.24,6.32-15,18.2-15h13.51c12.43,0,15.09,1.78,12.53,15l-5.65,29.22c-2.48,12.83-5.5,15-18.33,15H133.68c-12.69,0-14.86-2.19-12.38-15M145.52,74c-15.84,0-25,5.46-28.44,23.48l-5.93,30.72c-3.46,17.89,3.51,23.49,19.35,23.49h16.24c15.84,0,25-5.6,28.44-23.49l5.94-30.72C184.6,79.46,177.6,74,161.76,74Zm137.76,55.39.79-4.09c2.4-12.43,6.54-14.07,18-14.07h11.06a173.07,173.07,0,0,1,17.84,1L326.2,136.9c-6.56,2.18-16.12,6.42-23.36,6.42h-7c-12.7,0-14.84-2.32-12.6-13.93m41-55.43H294l-1.53,7.92h28.39c12.84,0,15.77,1.09,13.1,14.88l-1.74,9a82.5,82.5,0,0,0-18.61-1.91H302.28c-5.73,0-10.47.28-14.35,1.5-6.77,2.12-10.94,7.12-13.15,18.57l-1.24,6.42c-3.83,19.79,3.83,21.16,19.53,21.16h6.55c8.33,0,18.65-4.64,25.24-7.65l-1.38,7.1h10l10.82-56c3.34-17.25-3.43-21-18.31-21l-1.65,0M98.24,51.07,78.9,151.14h9.83L108.08,51.07ZM201.47,136.4l9.1-47.11c6.57-2.18,16.12-6.41,23.36-6.41h5.6c11.06,0,14.84,2.32,12.57,14.06l-6.18,31.95c-2.24,11.6-6.92,13.92-18,13.92h-5.6c-7.23,0-15.15-4.23-20.87-6.41M208,51.07,188.65,151.14h10L200,144c5.42,3,13.95,7.65,22.28,7.65h5.46c15.7,0,24.39-3.28,27.85-21.16l6.83-35.37c3.46-17.88-4-21-19.69-21h-5.46c-8.33,0-18.62,4.5-25.21,7.51L218,51.07Zm162.71-.15L351.35,151h9.83L380.53,50.92Z" />
  <path class="cls-6"
    d="M520,70.23l-15.49,80.65,28.59-.27L548.59,70l33.16-.31,4.59-23.54L490.8,47l-4.59,23.53Zm-44.61.42L480,47.12a129.73,129.73,0,0,0-27.76,3.38C442.7,53.1,435,56.73,428.8,61.61c-22.78,17.78-26.61,49.48-15.9,67.93a43.35,43.35,0,0,0,17.7,16.6,65.13,65.13,0,0,0,14.17,5.25c7.64,1.89,21,2.24,30.22,1.6a162.2,162.2,0,0,0,18.86-2l3.39-17.69c-10.88,1.39-25.93,2.08-37.19.41-15.66-2.3-25.15-10.93-25.4-23a42.24,42.24,0,0,1,4.25-18.57C444.2,81,453.1,73.64,464,71.49a67.67,67.67,0,0,1,11.44-.84" />
</svg>