<?xml version="1.0" encoding="UTF-8" standalone="no"?>
<svg
   xmlns:dc="http://purl.org/dc/elements/1.1/"
   xmlns:cc="http://creativecommons.org/ns#"
   xmlns:rdf="http://www.w3.org/1999/02/22-rdf-syntax-ns#"
   xmlns:svg="http://www.w3.org/2000/svg"
   xmlns="http://www.w3.org/2000/svg"
   xmlns:sodipodi="http://sodipodi.sourceforge.net/DTD/sodipodi-0.dtd"
   xmlns:inkscape="http://www.inkscape.org/namespaces/inkscape"
   version="1.1"
   id="svg10"
   width="900"
   height="900"
   viewBox="0 0 900 900"
   sodipodi:docname="platonist-logo-black.svg"
   inkscape:version="1.0.2 (e86c870879, 2021-01-15, custom)">
  <metadata
     id="metadata16">
    <rdf:RDF>
      <cc:Work
         rdf:about="">
        <dc:format>image/svg+xml</dc:format>
        <dc:type
           rdf:resource="http://purl.org/dc/dcmitype/StillImage" />
        <dc:title></dc:title>
      </cc:Work>
    </rdf:RDF>
  </metadata>
  <defs
     id="defs14" />
  <sodipodi:namedview
     pagecolor="#ffffff"
     bordercolor="#666666"
     borderopacity="1"
     objecttolerance="10"
     gridtolerance="10"
     guidetolerance="10"
     inkscape:pageopacity="0"
     inkscape:pageshadow="2"
     inkscape:window-width="1920"
     inkscape:window-height="1017"
     id="namedview12"
     showgrid="false"
     inkscape:zoom="0.90821772"
     inkscape:cx="236.20035"
     inkscape:cy="663.99548"
     inkscape:window-x="1912"
     inkscape:window-y="-8"
     inkscape:window-maximized="1"
     inkscape:current-layer="g18" />
  <g
     inkscape:groupmode="layer"
     inkscape:label="Image"
     id="g18">
    <g
       id="g40"
       transform="matrix(1.5357899,0,0,1.5357899,-139.06286,-141.91822)">
      <path
         style="fill:#000000"
         d="m 277.28732,677.54819 c -21.55773,-2.11705 -44.48034,-8.89834 -64.46394,-19.07061 -18.83511,-9.58766 -30.11224,-17.90169 -46.58703,-34.34614 -13.83058,-13.8051 -22.7976,-25.48855 -31.22504,-40.68423 -5.18069,-9.3414 -12.12766,-26.47674 -15.2675,-37.65873 -5.47191,-19.48721 -6.37823,-26.71109 -6.35863,-50.68213 0.0164,-19.999 0.26152,-23.15056 2.69556,-34.64983 3.54185,-16.7329 7.59163,-28.72214 14.73995,-43.63713 15.29041,-31.90345 38.61374,-58.04767 68.15418,-76.39726 60.44548,-37.54681 137.65476,-36.41036 197.31246,2.90427 44.0873,29.05371 73.4366,76.32396 80.4677,129.60231 2.2419,16.98795 1.123,42.87584 -2.6226,60.67764 -19.0711,90.64088 -104.37977,153.02231 -196.84511,143.94184 z m -5.63178,-34.28305 c 0.7772,-0.93648 1.19136,-16.55307 1.37244,-51.75 l 0.25934,-50.40879 38.5,-0.5 c 32.62311,-0.42368 39.03426,-0.74689 42,-2.11741 4.74348,-2.19204 8.37009,-5.76702 11.16524,-11.00629 l 2.33476,-4.3763 v -74.5 -74.5 l -2.38271,-4.83986 c -2.56538,-5.21093 -8.06664,-9.86523 -14.00489,-11.84875 -2.60464,-0.87001 -19.96789,-1.30527 -62.23975,-1.56022 -53.04614,-0.31994 -58.78183,-0.19913 -60.25,1.26904 -1.48169,1.48168 -1.62132,13.88718 -1.60734,142.80122 0.008,77.64821 0.35176,141.70755 0.76298,142.35407 1.00205,1.57546 5.58129,1.95747 25.84927,2.1564 13.26484,0.13019 17.37859,-0.13438 18.24066,-1.17311 z m 5.38178,-142.38103 -4.25,-0.39276 v -52.46028 -52.46028 l 24.25,0.26778 24.25,0.26778 v 52.5 52.5 l -20,0.0853 c -11,0.0469 -21.9125,-0.0915 -24.25,-0.3075 z m 227.42331,-42.02776 c -1.8541,-28.74957 -16.3212,-60.96213 -41.2062,-91.75 -8.3092,-10.28023 -28.3966,-30.18702 -39.4671,-39.11237 -35.4373,-28.57037 -76.01243,-46.14736 -113.49127,-49.16395 l -8.99125,-0.72368 46.21182,-37.75 c 25.41651,-20.7625 46.439,-37.75 46.7167,-37.75 0.2777,0 0.2201,7.875 -0.128,17.5 -0.6067,16.77381 -0.5538,17.4996 1.2745,17.49028 1.3438,-0.007 11.0517,-12.2636 32.8497,-41.47446 17.0182,-22.80561 31.0757,-41.33128 31.2388,-41.16815 0.1631,0.16312 -3.3101,12.86207 -7.7182,28.21988 -4.4082,15.35781 -7.8907,28.56306 -7.7388,29.345 0.1518,0.78195 0.76,1.58284 1.3516,1.77976 0.5915,0.19693 25.0795,-27.10276 54.4178,-60.66598 29.3382,-33.56322 53.519,-60.847311 53.735,-60.631311 0.216,0.21599 -6.6667,13.827981 -15.2949,30.248851 -8.6282,16.42087 -29.0498,55.28113 -45.3815,86.35613 -16.3316,31.075 -29.9919,57.30453 -30.3561,58.28785 -0.4239,1.1446 -0.1143,1.99808 0.8605,2.37215 1.0333,0.39653 4.5013,-2.58805 10.792,-9.28786 5.0982,-5.42968 24.318,-25.87456 42.7105,-45.43308 18.3926,-19.55851 52.1161,-55.4359 74.9411,-79.72752 22.825,-24.29163 41.6178,-43.823401 41.7617,-43.403951 0.144,0.41945 -8.336,18.521831 -18.8442,40.227521 -22.3467,46.15877 -21.1878,43.49566 -19.5272,44.87382 0.9528,0.79073 8.5696,-2.51279 29.6677,-12.86725 15.6123,-7.66211 28.5878,-13.72921 28.8346,-13.48245 0.2467,0.24676 -0.4616,1.45938 -1.5741,2.69471 -14.1562,15.71881 -77.3185,91.02921 -77.3185,92.18928 0,0.85623 0.6246,1.55678 1.388,1.55678 0.7634,0 15.2759,-6.56967 32.25,-14.59927 16.9741,-8.02959 32.4165,-15.27408 34.3165,-16.09886 3.3178,-1.44024 3.3969,-1.42655 2,0.34572 -0.8,1.01492 -11.3916,12.42191 -23.537,25.34886 -54.2453,57.7361 -62.3959,66.57108 -62.4064,67.64656 -0.027,2.73241 0.4972,2.63647 65.7934,-12.05174 3.4675,-0.78 6.1675,-1.0654 6,-0.63422 -0.1675,0.43118 -15.8295,13.52924 -34.8045,29.1068 -18.975,15.57757 -34.8117,28.78325 -35.1928,29.34596 -0.381,0.56271 -0.2134,1.60071 0.3725,2.30665 0.7801,0.94006 5.0688,1.28354 16.0261,1.28354 8.2285,0 14.8109,0.37916 14.6275,0.84259 -0.5802,1.46678 -85.3052,108.05555 -85.9322,108.10765 -0.3294,0.0274 -0.8819,-4.33774 -1.2278,-9.70024 z"
         id="path42" />
    </g>
  </g>
</svg>
